<svg xmlns="http://www.w3.org/2000/svg" viewBox="0 0 64 64"><defs><style>.cls-1{fill:#afb4c8;}.cls-2{fill:#e1e4ed;}.cls-3{fill:#ade1fa;}.cls-4{fill:#cdd2e1;}.cls-5{fill:#8ed8f8;}.cls-6{fill:#d4effc;}.cls-7{fill:#99a1b1;}.cls-8{fill:#ffe474;}.cls-9{fill:#393045;}</style></defs><title>21-error 404</title><g id="_21-error_404" data-name="21-error 404"><polygon class="cls-1" points="41 47 43 55 21 55 23 47 41 47"/><path class="cls-2" d="M46,55a2.006,2.006,0,0,1,2,2,2.015,2.015,0,0,1-2,2H18a2.006,2.006,0,0,1-2-2,2.015,2.015,0,0,1,2-2H46Z"/><path class="cls-2" d="M63,41v2a4,4,0,0,1-4,4H5a4,4,0,0,1-4-4V41Z"/><path class="cls-3" d="M63,9V41H1V9A4,4,0,0,1,5,5H59A4,4,0,0,1,63,9Z"/><path class="cls-4" d="M7,43V41H1v2a4,4,0,0,0,4,4h6A4,4,0,0,1,7,43Z"/><path class="cls-5" d="M11,5H5A4,4,0,0,0,1,9V41H7V9A4,4,0,0,1,11,5Z"/><path class="cls-4" d="M57,43V41h6v2a4,4,0,0,1-4,4H53A4,4,0,0,0,57,43Z"/><path class="cls-6" d="M53,5h6a4,4,0,0,1,4,4V41H57V9A4,4,0,0,0,53,5Z"/><polygon class="cls-7" points="41 47 23 47 22 51 42 51 41 47"/><path class="cls-4" d="M18,59H46a2.015,2.015,0,0,0,2-2H16A2.006,2.006,0,0,0,18,59Z"/><rect class="cls-8" x="15" y="14" width="32" height="19"/><path class="cls-9" d="M59,4H5A5.006,5.006,0,0,0,0,9V43a5.006,5.006,0,0,0,5,5H21.719l-1.5,6H18a3,3,0,0,0,0,6H46a3,3,0,0,0,0-6H43.781l-1.5-6H59a5.006,5.006,0,0,0,5-5V9A5.006,5.006,0,0,0,59,4ZM5,6H59a3,3,0,0,1,3,3V40H2V9A3,3,0,0,1,5,6ZM47,57a1,1,0,0,1-1,1H18a1,1,0,0,1,0-2H46A1,1,0,0,1,47,57Zm-5.281-3H22.281l1.5-6H40.219ZM59,46H5a3,3,0,0,1-3-3V42H62v1A3,3,0,0,1,59,46Z"/><path class="cls-9" d="M30,17a3,3,0,0,0-3,3v7a3,3,0,0,0,3,3h3a3,3,0,0,0,3-3V20a3,3,0,0,0-3-3Zm4,3v7a1,1,0,0,1-1,1H30a1,1,0,0,1-1-1V20a1,1,0,0,1,1-1h3A1,1,0,0,1,34,20Z"/><path class="cls-9" d="M24,30V27h2V25H24V18a1,1,0,0,0-1-1H20a1,1,0,0,0-.895.553l-3,6A1,1,0,0,0,16,24v2a1,1,0,0,0,1,1h5v3Zm-6-5v-.764L20.618,19H22v6Z"/><path class="cls-9" d="M45,18a1,1,0,0,0-1-1H41a1,1,0,0,0-.9.553l-3,6A1,1,0,0,0,37,24v2a1,1,0,0,0,1,1h5v3h2V27h2V25H45Zm-2,7H39v-.764L41.618,19H43Z"/><rect class="cls-9" x="15" y="32" width="32" height="2"/><rect class="cls-9" x="15" y="13" width="32" height="2"/></g></svg>